<svg width="60" height="60" viewBox="0 0 60 60" fill="none" xmlns="http://www.w3.org/2000/svg">
<rect width="60" height="60" rx="30" fill="black"/>
<path d="M18.64 44.48C16.4533 44.48 14.4533 43.9467 12.64 42.88C10.8267 41.7867 9.37333 40.1733 8.28 38.04C7.18667 35.88 6.64 33.2267 6.64 30.08C6.64 26.9867 7.17333 24.3467 8.24 22.16C9.30667 19.9733 10.8133 18.2933 12.76 17.12C14.7067 15.9467 16.9867 15.36 19.6 15.36C20.9867 15.36 22.4133 15.5333 23.88 15.88C25.3467 16.2267 26.92 16.7467 28.6 17.44L28.24 24.64H24.84L23.88 19.96L24.84 20.88C23.9067 20.5067 23.0133 20.2267 22.16 20.04C21.3067 19.8533 20.52 19.76 19.8 19.76C18.28 19.76 17 20.1467 15.96 20.92C14.92 21.6667 14.1333 22.76 13.6 24.2C13.0667 25.64 12.8 27.36 12.8 29.36C12.8 31.7067 13.1067 33.6667 13.72 35.24C14.36 36.7867 15.2267 37.9467 16.32 38.72C17.44 39.4667 18.6933 39.84 20.08 39.84C21.12 39.84 22.2133 39.6267 23.36 39.2C24.5333 38.7467 25.7067 38.0667 26.88 37.16L29 40.48C27.3467 41.8133 25.6267 42.8133 23.84 43.48C22.08 44.1467 20.3467 44.48 18.64 44.48ZM42.9759 44.48C40.7893 44.48 38.7893 43.9467 36.9759 42.88C35.1626 41.7867 33.7093 40.1733 32.6159 38.04C31.5226 35.88 30.9759 33.2267 30.9759 30.08C30.9759 26.9867 31.5093 24.3467 32.5759 22.16C33.6426 19.9733 35.1493 18.2933 37.0959 17.12C39.0426 15.9467 41.3226 15.36 43.9359 15.36C45.3226 15.36 46.7493 15.5333 48.2159 15.88C49.6826 16.2267 51.2559 16.7467 52.9359 17.44L52.5759 24.64H49.1759L48.2159 19.96L49.1759 20.88C48.2426 20.5067 47.3493 20.2267 46.4959 20.04C45.6426 19.8533 44.8559 19.76 44.1359 19.76C42.6159 19.76 41.3359 20.1467 40.2959 20.92C39.2559 21.6667 38.4693 22.76 37.9359 24.2C37.4026 25.64 37.1359 27.36 37.1359 29.36C37.1359 31.7067 37.4426 33.6667 38.0559 35.24C38.6959 36.7867 39.5626 37.9467 40.6559 38.72C41.7759 39.4667 43.0293 39.84 44.4159 39.84C45.4559 39.84 46.5493 39.6267 47.6959 39.2C48.8693 38.7467 50.0426 38.0667 51.2159 37.16L53.3359 40.48C51.6826 41.8133 49.9626 42.8133 48.1759 43.48C46.4159 44.1467 44.6826 44.48 42.9759 44.48Z" fill="#E75300"/>
</svg>
