<svg width="145" height="58" viewBox="0 0 145 58" fill="none" xmlns="http://www.w3.org/2000/svg">
<g clip-path="url(#clip0_153_5)">
<path d="M17.6149 33C15.4072 33 13.3881 32.4689 11.5574 31.4066C9.72674 30.3178 8.25949 28.711 7.1557 26.5865C6.0519 24.4354 5.5 21.7931 5.5 18.6593C5.5 15.5788 6.03843 12.9497 7.11531 10.772C8.19219 8.59432 9.71327 6.92124 11.6786 5.75275C13.6439 4.58425 15.9457 4 18.584 4C19.984 4 21.4243 4.17262 22.905 4.51786C24.3857 4.8631 25.9741 5.38095 27.6702 6.07143L27.3067 13.2418H23.8742L22.905 8.58104L23.8742 9.49725C22.932 9.12546 22.03 8.84662 21.1685 8.66071C20.3071 8.47481 19.5128 8.38187 18.786 8.38187C17.2514 8.38187 15.9592 8.76694 14.9092 9.53709C13.8592 10.2807 13.065 11.3695 12.5266 12.8036C11.9882 14.2376 11.719 15.9506 11.719 17.9423C11.719 20.2793 12.0286 22.2313 12.6478 23.7981C13.2939 25.3384 14.1689 26.4936 15.2726 27.2637C16.4034 28.0074 17.6687 28.3791 19.0686 28.3791C20.1186 28.3791 21.2224 28.1667 22.38 27.7418C23.5646 27.2903 24.7492 26.6131 25.9337 25.7102L28.074 29.0165C26.4049 30.3443 24.6684 31.3402 22.8646 32.0041C21.0878 32.6681 19.3379 33 17.6149 33ZM42.6279 33C40.0703 33 37.8493 32.4689 35.9647 31.4066C34.1071 30.3178 32.6669 28.7244 31.6438 26.6264C30.6208 24.5284 30.1092 21.9391 30.1092 18.8585C30.1092 16.3887 30.4323 14.2244 31.0784 12.3654C31.7245 10.5064 32.6399 8.96612 33.8244 7.74451C35.0091 6.49634 36.4089 5.56685 38.0242 4.95604C39.6665 4.31868 41.4837 4 43.4759 4C45.4413 4 47.2047 4.30541 48.7661 4.91621C50.3545 5.52701 51.7006 6.41667 52.8044 7.58516C53.9351 8.75366 54.8101 10.2143 55.4293 11.967C56.0485 13.6932 56.3581 15.6983 56.3581 17.9821C56.3581 21.0893 55.7793 23.7715 54.6216 26.0288C53.4909 28.2596 51.9025 29.9858 49.8564 31.2074C47.8104 32.4025 45.4009 33 42.6279 33ZM43.0721 28.6181C44.4183 28.6181 45.6162 28.2995 46.6662 27.6621C47.7161 26.9981 48.5507 25.9093 49.1699 24.3956C49.816 22.8553 50.1391 20.7972 50.1391 18.2212C50.1391 15.831 49.843 13.919 49.2507 12.4849C48.6853 11.0242 47.8912 9.97528 46.8681 9.33791C45.8451 8.70055 44.6336 8.38187 43.2336 8.38187C41.8876 8.38187 40.6895 8.70055 39.6396 9.33791C38.5896 9.97528 37.7685 11.0376 37.1762 12.5247C36.6108 14.0119 36.3282 16.0568 36.3282 18.6593C36.3282 21.0495 36.5974 22.9748 37.1358 24.4354C37.6743 25.8695 38.4416 26.9318 39.4376 27.6223C40.4607 28.2862 41.6722 28.6181 43.0721 28.6181ZM59.4442 32.522V29.6538L63.1594 28.6181L62.4325 29.7335V7.42582L63.4421 8.62088L59.4442 7.54533V4.6772L68.4496 4.47802H72.3667C75.5974 4.47802 78.0338 5.14193 79.676 6.46978C81.3183 7.79762 82.1394 9.70967 82.1394 12.206C82.1394 14.4368 81.4394 16.2825 80.0395 17.7431C78.6665 19.2038 76.4992 20.0934 73.5378 20.4121L73.5782 19.7747C74.6282 19.8013 75.4896 19.9607 76.1627 20.2527C76.8358 20.5448 77.3876 20.9565 77.8184 21.4876C78.276 21.9922 78.6934 22.603 79.0703 23.3201L82.3009 29.4547L80.6452 28.4588L84.3604 29.6538V32.522H77.7376L74.1032 24.8338C73.6186 23.8247 73.2013 23.0545 72.8513 22.5234C72.5013 21.9657 72.0706 21.5939 71.5591 21.408C71.0475 21.1955 70.3072 21.1025 69.338 21.1291H67.2381L68.2073 20.3324V29.7335L67.44 28.5783L71.5187 29.6538V32.522H59.4442ZM68.2073 18.5797L67.2381 17.1854H70.5899C72.4744 17.1854 73.8878 16.8003 74.8301 16.0302C75.7723 15.2601 76.2435 14.1181 76.2435 12.6044C76.2435 11.3297 75.8666 10.3338 75.1128 9.61676C74.3589 8.89973 73.2013 8.54121 71.6398 8.54121H67.2381L68.2073 7.66484V18.5797ZM104.067 25.033H107.5L107.419 32.522H86.3793V29.6538L90.1349 28.5783L89.3676 29.7335V7.42582L90.0945 8.54121L86.3793 7.54533V4.6772L95.0212 4.47802H106.975V11.6484H103.542L102.735 7.78434L103.825 8.58104H94.2539L95.1424 7.70467V17.1456L94.2539 16.2692H103.825V20.2129H94.2539L95.1424 19.217V29.2953L94.2539 28.419H104.31L103.219 29.2953L104.067 25.033Z" fill="#E75300"/>
<path d="M113 50.5H140" stroke="#E75300"/>
<path d="M0 57.5H145" stroke="#E75300"/>
<path d="M0.5 58V0" stroke="#E75300"/>
<path d="M0 0.5H145" stroke="#E75300"/>
<path d="M13.6954 54.3059C12.3014 54.3059 11.0264 53.9659 9.87041 53.2859C8.71441 52.5889 7.78791 51.5604 7.09091 50.2004C6.39391 48.8234 6.04541 47.1319 6.04541 45.1259C6.04541 43.1539 6.38541 41.4709 7.06541 40.0769C7.74541 38.6829 8.70591 37.6119 9.94691 36.8639C11.1879 36.1159 12.6414 35.7419 14.3074 35.7419C15.1914 35.7419 16.1009 35.8524 17.0359 36.0734C17.9709 36.2944 18.9739 36.6259 20.0449 37.0679L19.8154 41.6579H17.6479L17.0359 38.6744L17.6479 39.2609C17.0529 39.0229 16.4834 38.8444 15.9394 38.7254C15.3954 38.6064 14.8939 38.5469 14.4349 38.5469C13.4659 38.5469 12.6499 38.7934 11.9869 39.2864C11.3239 39.7624 10.8224 40.4594 10.4824 41.3774C10.1424 42.2954 9.97241 43.3919 9.97241 44.6669C9.97241 46.1629 10.1679 47.4124 10.5589 48.4154C10.9669 49.4014 11.5194 50.1409 12.2164 50.6339C12.9304 51.1099 13.7294 51.3479 14.6134 51.3479C15.2764 51.3479 15.9734 51.2119 16.7044 50.9399C17.4524 50.6509 18.2004 50.2174 18.9484 49.6394L20.2999 51.7559C19.2459 52.6059 18.1494 53.2434 17.0104 53.6684C15.8884 54.0934 14.7834 54.3059 13.6954 54.3059ZM37.519 52.2914L36.5755 51.4499L38.7685 52.1639V53.9999H31.45V52.1639L33.6685 51.5264L33.3115 52.0364L32.2915 48.7214L32.8525 49.1804H26.1205L26.554 48.7469L25.4575 51.9854L25.3555 51.6029L27.3955 52.1639V53.9999H20.74V52.1639L22.8565 51.5009L22.0405 52.2149L28.0585 36.0989L31.807 35.9969L37.519 52.2914ZM27.0385 47.1404L26.7835 46.6559H32.266L31.909 47.2169L29.257 38.0114H30.0985L27.0385 47.1404ZM46.0457 47.6504H44.0312L44.7707 47.0894V52.2149L44.2607 51.5009L47.1932 52.1639V53.9999H39.2372V52.1639L41.6852 51.4499L41.1242 52.2149V37.8839L41.7617 38.6744L39.2372 38.0114V36.1754L44.8472 36.0479H47.1677C48.5787 36.0479 49.7347 36.2944 50.6357 36.7874C51.5367 37.2634 52.1997 37.9179 52.6247 38.7509C53.0667 39.5839 53.2877 40.5274 53.2877 41.5814C53.2877 42.7204 53.0242 43.7574 52.4972 44.6924C51.9872 45.6104 51.1967 46.3329 50.1257 46.8599C49.0717 47.3869 47.7117 47.6504 46.0457 47.6504ZM46.5812 38.6489H44.2097L44.7707 38.0879V45.5849L44.0312 45.0239H46.0712C47.2102 45.0239 48.0772 44.7179 48.6722 44.1059C49.2672 43.4939 49.5647 42.6779 49.5647 41.6579C49.5647 40.7229 49.3097 39.9919 48.7997 39.4649C48.3067 38.9209 47.5672 38.6489 46.5812 38.6489ZM61.6733 37.8839L59.4293 38.6489L59.8118 38.0879V52.0364L59.4293 51.5009L61.6733 52.1639V53.9999H54.2783V52.1639L56.4968 51.5264L56.1653 52.0364V38.0879L56.6243 38.6489L54.2783 38.0114V36.1754L61.6733 36.0479V37.8839ZM65.9254 53.9999V52.1639L68.7559 51.4499L68.0929 52.3679V38.1134L68.8324 38.6744H64.6759L65.4919 37.9604L64.8034 41.1989H62.6359V36.0479H77.2219V41.1989H75.0544L74.4169 38.1134L75.1819 38.6744H71.0254L71.7649 38.1134V52.3679L71.1274 51.4499L73.9324 52.1639V53.9999H65.9254ZM92.603 52.2914L91.6595 51.4499L93.8525 52.1639V53.9999H86.534V52.1639L88.7525 51.5264L88.3955 52.0364L87.3755 48.7214L87.9365 49.1804H81.2045L81.638 48.7469L80.5415 51.9854L80.4395 51.6029L82.4795 52.1639V53.9999H75.824V52.1639L77.9405 51.5009L77.1245 52.2149L83.1425 36.0989L86.891 35.9969L92.603 52.2914ZM82.1225 47.1404L81.8675 46.6559H87.35L86.993 47.2169L84.341 38.0114H85.1825L82.1225 47.1404ZM104.929 48.5939H107.097V53.9999H94.3212V52.1639L96.6162 51.5009L96.2082 52.2149V37.9349L96.6162 38.6234L94.3212 38.0114V36.1754L101.895 36.0479V37.8839L99.4722 38.6234L99.8547 37.9349V51.9344L99.2937 51.3734H104.853L104.343 51.9599L104.929 48.5939Z" fill="#E75300"/>
<path d="M114.5 18L126.5 8L138.5 18" stroke="#E75300" stroke-linecap="round"/>
<path d="M125 9.91431C125 9.64909 125.105 9.39473 125.293 9.2072L125.793 8.7072C126.183 8.31667 126.817 8.31667 127.207 8.7072L127.707 9.2072C127.895 9.39473 128 9.64909 128 9.9143V50.0001C128 50.5524 127.552 50.5 127 50.5H126C125.448 50.5 125 50.5523 125 50V9.91431Z" fill="#E75300"/>
<path d="M114 18.0543L115 17.5472L116 17V50.5H114V18.0543Z" fill="#E75300"/>
<path d="M139 18.0152L138 17.5077L137 17L137 50.5785H139V18.0152Z" fill="#E75300"/>
<path d="M117 15.8306L118 15V50.5705H117L117 15.8306Z" fill="#E75300"/>
<path d="M119 13.7781L120 13V50.5466H119L119 13.7781Z" fill="#E75300"/>
<path d="M121 12.8591L122 12V50.5H121.5H121V12.8591Z" fill="#E75300"/>
<path d="M123 10.7693L124 10V50.5H123V10.7693Z" fill="#E75300"/>
<path d="M129 10L130 11.025V50.475H129V10Z" fill="#E75300"/>
<path d="M131 12L131.5 12.2179L132 12.7687V50.5H131V12Z" fill="#E75300"/>
<path d="M133 13L134 13.9064V50.5H133V13Z" fill="#E75300"/>
<path d="M135 15L136 15.8052V50.5H135V15Z" fill="#E75300"/>
<path d="M144.5 0V58" stroke="#E75300"/>
</g>
<defs>
<clipPath id="clip0_153_5">
<rect width="145" height="58" fill="white"/>
</clipPath>
</defs>
</svg>
