<svg width="400" height="440" viewBox="0 0 400 440" fill="none" xmlns="http://www.w3.org/2000/svg">
<g clip-path="url(#clip0_160_11)">
<mask id="mask0_160_11" style="mask-type:luminance" maskUnits="userSpaceOnUse" x="0" y="0" width="400" height="440">
<path d="M400 0H0V440H400V0Z" fill="white"/>
</mask>
<g mask="url(#mask0_160_11)">
<path d="M123.076 135.14H108.776C104.581 124.081 100.196 111.116 95.6201 96.2441C91.4254 81.3721 87.8028 67.2627 84.7521 53.9161C98.0988 42.4761 114.115 33.5147 132.8 27.0321C151.485 20.1681 171.696 16.7361 193.432 16.7361C212.499 16.7361 228.896 19.4054 242.624 24.7441C256.352 30.0828 267.601 37.3281 276.372 46.4801C285.524 55.6321 292.197 66.3094 296.392 78.5121C300.587 90.3334 302.684 102.727 302.684 115.692C302.684 137.047 297.727 158.973 287.812 181.472C277.897 203.971 265.504 225.897 250.632 247.252C236.141 268.225 220.316 288.055 203.156 306.74C185.996 325.425 170.171 341.823 155.68 355.932L131.656 378.24V380.528L163.688 377.096H262.072L290.1 313.032H304.4C305.163 321.421 305.925 330.573 306.688 340.488C307.451 350.403 308.023 360.508 308.404 370.804C309.167 380.719 309.739 390.443 310.12 399.976C310.501 409.128 310.692 417.136 310.692 424H74.4561V405.696C82.8454 396.925 92.9508 386.248 104.772 373.664C116.975 361.08 129.559 347.161 142.524 331.908C155.489 316.655 168.264 300.448 180.848 283.288C193.813 266.128 205.253 248.777 215.168 231.236C225.083 213.313 233.091 195.581 239.192 178.04C245.675 160.499 248.916 143.72 248.916 127.704C248.916 116.645 247.391 106.159 244.34 96.2441C241.671 86.3294 237.476 77.7494 231.756 70.5041C226.036 62.8774 218.981 56.9668 210.592 52.7721C202.584 48.5774 193.241 46.4801 182.564 46.4801C174.556 46.4801 167.501 47.0521 161.4 48.1961C155.299 49.3401 148.625 51.0561 141.38 53.3441L123.076 135.14Z" fill="black"/>
</g>
</g>
<defs>
<clipPath id="clip0_160_11">
<rect width="400" height="440" fill="white"/>
</clipPath>
</defs>
</svg>
