<svg width="400" height="440" viewBox="0 0 400 440" fill="none" xmlns="http://www.w3.org/2000/svg">
<g clip-path="url(#clip0_160_4)">
<mask id="mask0_160_4" style="mask-type:luminance" maskUnits="userSpaceOnUse" x="0" y="0" width="400" height="440">
<path d="M400 0H0V440H400V0Z" fill="white"/>
</mask>
<g mask="url(#mask0_160_4)">
<path d="M290.1 424H123.076V407.412C132.609 403.217 142.143 399.595 151.676 396.544C161.591 393.112 171.505 390.252 181.42 387.964V107.112L183.708 73.3641C173.031 77.5587 161.972 80.6094 150.532 82.5161C139.092 84.0414 127.271 84.6134 115.068 84.2321L112.208 70.5041C129.749 64.7841 147.863 57.7294 166.548 49.3401C185.233 40.5694 202.584 29.7014 218.6 16.7361H232.9V387.964C242.433 390.252 251.967 393.112 261.5 396.544C271.033 399.595 280.567 403.217 290.1 407.412V424Z" fill="black"/>
</g>
</g>
<defs>
<clipPath id="clip0_160_4">
<rect width="400" height="440" fill="white"/>
</clipPath>
</defs>
</svg>
