<svg width="20" height="40" viewBox="0 0 20 40" fill="none" xmlns="http://www.w3.org/2000/svg">
<g clip-path="url(#clip0_172_5)">
<mask id="mask0_172_5" style="mask-type:luminance" maskUnits="userSpaceOnUse" x="0" y="0" width="20" height="40">
<path d="M20 0H0V40H20V0Z" fill="white"/>
</mask>
<g mask="url(#mask0_172_5)">
<path d="M20 12.3711C20 19.2035 12.5 34.6392 10 39.7938C7.5 34.6392 0 19.2035 0 12.3711C0 5.53876 4.47717 0 10 0C15.5228 0 20 5.53876 20 12.3711Z" fill="black"/>
<path d="M6.21338 18.7546C5.48448 18.7546 4.81781 18.5347 4.21338 18.0948C3.60895 17.6439 3.12449 16.9786 2.76005 16.0989C2.3956 15.2082 2.21338 14.114 2.21338 12.8164C2.21338 11.5409 2.39116 10.4522 2.74671 9.55046C3.10227 8.64873 3.60448 7.95595 4.25338 7.47211C4.90228 6.98828 5.66228 6.74634 6.53338 6.74634C6.99561 6.74634 7.47115 6.8178 7.96005 6.96077C8.44895 7.10374 8.97338 7.31817 9.53338 7.60407L9.41338 10.5731H8.28005L7.96005 8.64324L8.28005 9.02263C7.96895 8.86869 7.67115 8.75322 7.38671 8.67624C7.10228 8.59925 6.84005 8.56077 6.60005 8.56077C6.09338 8.56077 5.66671 8.72023 5.32005 9.03912C4.97338 9.34704 4.71115 9.79788 4.53338 10.3917C4.35561 10.9855 4.26671 11.6948 4.26671 12.5195C4.26671 13.4872 4.36895 14.2955 4.57338 14.9443C4.78671 15.5821 5.07561 16.0604 5.44005 16.3793C5.81338 16.6872 6.23115 16.8412 6.69338 16.8412C7.04005 16.8412 7.40448 16.7532 7.78671 16.5773C8.17781 16.3903 8.56895 16.1099 8.96005 15.736L9.66671 17.1051C9.11561 17.6549 8.54228 18.0673 7.94671 18.3422C7.36005 18.6171 6.78228 18.7546 6.21338 18.7546ZM14.3253 18.7546C13.5965 18.7546 12.9298 18.5347 12.3253 18.0948C11.7209 17.6439 11.2365 16.9786 10.872 16.0989C10.5076 15.2082 10.3253 14.114 10.3253 12.8164C10.3253 11.5409 10.5031 10.4522 10.8587 9.55046C11.2142 8.64873 11.7165 7.95595 12.3653 7.47211C13.0142 6.98828 13.7742 6.74634 14.6453 6.74634C15.1076 6.74634 15.5831 6.8178 16.072 6.96077C16.5609 7.10374 17.0853 7.31817 17.6453 7.60407L17.5253 10.5731H16.392L16.072 8.64324L16.392 9.02263C16.0809 8.86869 15.7831 8.75322 15.4987 8.67624C15.2142 8.59925 14.952 8.56077 14.712 8.56077C14.2053 8.56077 13.7787 8.72023 13.432 9.03912C13.0853 9.34704 12.8231 9.79788 12.6453 10.3917C12.4676 10.9855 12.3787 11.6948 12.3787 12.5195C12.3787 13.4872 12.4809 14.2955 12.6853 14.9443C12.8987 15.5821 13.1876 16.0604 13.552 16.3793C13.9253 16.6872 14.3431 16.8412 14.8053 16.8412C15.152 16.8412 15.5165 16.7532 15.8987 16.5773C16.2898 16.3903 16.6809 16.1099 17.072 15.736L17.7787 17.1051C17.2276 17.6549 16.6542 18.0673 16.0587 18.3422C15.472 18.6171 14.8942 18.7546 14.3253 18.7546Z" fill="#E75300"/>
</g>
</g>
<defs>
<clipPath id="clip0_172_5">
<rect width="20" height="40" fill="white"/>
</clipPath>
</defs>
</svg>
