<svg width="400" height="440" viewBox="0 0 400 440" fill="none" xmlns="http://www.w3.org/2000/svg">
<g clip-path="url(#clip0_160_18)">
<mask id="mask0_160_18" style="mask-type:luminance" maskUnits="userSpaceOnUse" x="0" y="0" width="400" height="440">
<path d="M400 0H0V440H400V0Z" fill="white"/>
</mask>
<g mask="url(#mask0_160_18)">
<path d="M193.432 396.98C204.109 396.98 214.024 394.692 223.176 390.116C232.328 385.159 240.336 378.676 247.2 370.668C254.064 362.279 259.403 352.745 263.216 342.068C267.411 331.391 269.508 320.141 269.508 308.32C269.508 294.211 267.22 281.817 262.644 271.14C258.449 260.463 252.539 251.692 244.912 244.828C237.285 237.583 228.324 232.244 218.028 228.812C208.113 224.999 197.245 223.092 185.424 223.092H148.244V207.648L244.34 78.9481L263.788 58.9281V56.6401L232.9 60.0721H136.232L113.924 118.416H99.6241C98.0988 110.408 96.5734 101.828 95.0481 92.6761C93.9041 83.5241 92.7601 74.5628 91.6161 65.7921C90.4721 56.6401 89.5188 47.8694 88.7561 39.4801C87.9934 31.0907 87.6121 23.4641 87.6121 16.6001H311.264V34.3321L215.74 161.888L191.144 187.056V188.2L210.592 184.196C228.515 184.959 244.531 188.391 258.64 194.492C272.749 200.593 284.571 208.792 294.104 219.088C304.019 229.003 311.455 240.824 316.412 254.552C321.751 267.899 324.42 282.58 324.42 298.596C324.42 317.663 320.607 335.013 312.98 350.648C305.353 365.901 295.057 379.057 282.092 390.116C269.508 400.793 254.827 409.183 238.048 415.284C221.651 421.004 204.3 423.864 185.996 423.864C177.225 423.864 167.883 423.101 157.968 421.576C148.053 420.432 138.329 418.525 128.796 415.856C119.263 413.187 110.301 410.136 101.912 406.704C93.9041 403.272 87.0401 399.268 81.3201 394.692L97.3361 343.212H108.776C111.064 345.881 114.115 349.313 117.928 353.508C122.123 357.703 126.317 362.088 130.512 366.664C135.088 371.24 139.473 375.816 143.668 380.392C147.863 384.968 151.485 388.972 154.536 392.404C158.349 393.167 163.307 394.12 169.408 395.264C175.509 396.408 183.517 396.98 193.432 396.98Z" fill="black"/>
</g>
</g>
<defs>
<clipPath id="clip0_160_18">
<rect width="400" height="440" fill="white"/>
</clipPath>
</defs>
</svg>
