<svg width="40" height="40" viewBox="0 0 40 40" fill="none" xmlns="http://www.w3.org/2000/svg">
<g clip-path="url(#clip0_136320_60)">
<path d="M20 40C31.0457 40 40 31.0457 40 20C40 8.9543 31.0457 0 20 0C8.9543 0 0 8.9543 0 20C0 31.0457 8.9543 40 20 40Z" fill="#30BF39"/>
<path d="M25.3246 22.1239C25.0696 21.9971 23.7304 21.2363 23.4754 21.1729C23.2203 21.0461 23.029 21.0461 22.8377 21.2997C22.6464 21.5533 22.0725 22.1873 21.9449 22.3141C21.7536 22.5043 21.6261 22.5043 21.371 22.3775C21.1159 22.2507 20.2232 21.9337 19.2029 20.9193C18.4377 20.1585 17.8638 19.2709 17.7362 18.9539C17.6087 18.7003 17.7362 18.5101 17.8638 18.3833C17.9913 18.2565 18.1188 18.0663 18.3101 17.9395C18.5014 17.8127 18.5014 17.6859 18.629 17.4957C18.7565 17.3055 18.6928 17.1787 18.629 16.9885C18.5652 16.7983 18.0551 15.4669 17.8638 14.8963C17.6725 14.3256 17.4174 14.4525 17.2899 14.389C17.0986 14.389 16.971 14.3256 16.7797 14.3256C16.5246 14.3256 16.2058 14.4525 16.0145 14.6427C15.7594 14.8963 14.9942 15.5303 14.9942 16.8617C14.9942 18.1931 15.887 19.5879 16.0145 19.7147C16.142 19.9049 17.8 22.8213 20.542 24.0259C23.2841 25.2305 23.2841 24.8501 23.7942 24.8501C24.3043 24.8501 25.4522 24.2161 25.7072 23.6455C25.9623 23.0115 25.9623 22.4409 25.8986 22.3775C25.771 22.3775 25.5797 22.3141 25.3246 22.1239ZM20.2232 28.6542C18.4377 28.6542 16.7797 28.147 15.313 27.196L11.8696 28.2738L13.0174 24.9769C11.9333 23.4553 11.2957 21.6167 11.2957 19.7147C11.2957 14.7695 15.313 10.7752 20.287 10.7752C25.2609 10.7752 29.2145 14.7695 29.2145 19.7147C29.2145 24.6599 25.1971 28.6542 20.2232 28.6542ZM20.2232 9C14.2928 9 9.44638 13.8184 9.44638 19.7147C9.44638 21.6801 9.95652 23.5821 10.9768 25.2305L9 31L14.9942 29.098C16.5884 29.9856 18.3739 30.4294 20.2232 30.4294C26.1536 30.4294 31 25.611 31 19.7147C31 13.8184 26.2174 9 20.2232 9Z" fill="white"/>
</g>
<defs>
<clipPath id="clip0_136320_60">
<rect width="40" height="40" fill="white"/>
</clipPath>
</defs>
</svg>
